<svg id="Layer_1" data-name="Layer 1" xmlns="http://www.w3.org/2000/svg" viewBox="0 0 155.91 155.91"><defs><style>.cls-1{fill:#231f20;}</style></defs><title>Artboard 1</title><path class="cls-1" d="M36.6,56.43h2.17c5.28,0,8.83-3.08,8.83-7.68S44,41.1,38.77,41.1H32.19V60.84H36.6Zm2.48-4.18H36.6v-7h2.48c2,0,4.31.91,4.31,3.47C43.39,52,40.1,52.25,39.08,52.25Z"/><path class="cls-1" d="M62.93,56.17h1.75c1.7.05,2.09.34,3.55,2.61l1.33,2.06h5l-2-3a12.82,12.82,0,0,0-2.46-3.11,6.44,6.44,0,0,0,3.79-6.09c0-4.49-3.45-7.52-8.59-7.52H58.52V60.84h4.41ZM65.67,52H62.93V45.27h2.74c2,0,4,.89,4,3.34C69.72,51.65,66.9,52,65.67,52Z"/><path class="cls-1" d="M91.61,40.91A10.06,10.06,0,1,0,101.67,51,10,10,0,0,0,91.61,40.91Zm0,15.93A5.58,5.58,0,0,1,86,51a5.65,5.65,0,1,1,11.28,0A5.58,5.58,0,0,1,91.61,56.85Z"/><path class="cls-1" d="M39.14,75.05H32.19V94.8h6.95a9.87,9.87,0,1,0,0-19.75Zm0,15.57H36.6V79.26h2.54a5.68,5.68,0,0,1,0,11.36Z"/><path class="cls-1" d="M66.41,95c4,0,8.07-2.64,8.07-8.54V75.05H70.06V86.39c0,4-2.56,4.41-3.66,4.41s-3.66-.42-3.66-4.41V75.05H58.33V86.47C58.33,92.37,62.38,95,66.41,95Z"/><path class="cls-1" d="M92.87,79.08a6.49,6.49,0,0,1,4.54,1.78l.21.21,2.93-2.69-.24-.24a10.27,10.27,0,0,0-7.44-3.26,10.07,10.07,0,0,0,0,20.14,10.19,10.19,0,0,0,7.44-3.29l.24-.24-2.93-2.69-.24.24a6.24,6.24,0,0,1-4.52,1.78,5.87,5.87,0,0,1,0-11.73Z"/><polygon class="cls-1" points="122.2 90.62 113.27 90.62 113.27 86.96 121.52 86.96 121.52 82.78 113.27 82.78 113.27 79.26 122.2 79.26 122.2 75.05 108.85 75.05 108.85 94.8 122.2 94.8 122.2 90.62"/><polygon class="cls-1" points="43.34 116.56 36.6 116.56 36.6 108.85 32.19 108.85 32.19 128.57 36.6 128.57 36.6 120.77 43.34 120.77 43.34 128.57 47.76 128.57 47.76 108.85 43.34 108.85 43.34 116.56"/><path class="cls-1" d="M67.79,108.85H65.13l-7.94,19.28-.18.44h4.88l1.36-3.47h6.29l1.38,3.47h4.86L67.87,109Zm.21,12H64.81l1.59-4Z"/><path class="cls-1" d="M95.3,120.16c0,4-2.59,4.42-3.68,4.42S88,124.16,88,120.16V108.85H83.54v11.39c0,5.9,4.08,8.54,8.07,8.54s8.07-2.64,8.07-8.54V108.85H95.3Z"/><path class="cls-1" d="M116.64,116.38l-1.52-.16c-2.06-.26-2.93-.73-2.93-1.57,0-1.44,1.88-1.8,3-1.8h.21a8.64,8.64,0,0,1,4.7,1.8l.21.18,2.93-2.69-.24-.24a11.39,11.39,0,0,0-7.6-3.26h-.23c-4.34.08-7.37,2.59-7.37,6.14,0,3.11,2.32,5,6.74,5.56l1.52.16c2.35.29,3.21.86,3.21,2.06s-1.28,2-3.32,2h-.16a6.67,6.67,0,0,1-5.41-2.43l-.21-.29-2.93,2.69.16.24a10.17,10.17,0,0,0,8.38,4H116c4.62,0,7.73-2.53,7.73-6.22S121.39,117,116.64,116.38Z"/><path class="cls-1" d="M59.17,16,7.09,5.26V145.55h8.2v8.23H148.82V2.12ZM9.33,143.28V8L52.8,17l-37.51,5.8V143.28Zm49.79-125,79.2,16.35V143.28H17.56V24.74Zm87.45,133.19h-129v-6h123V32.82L65.49,17.33,146.57,4.76Z"/></svg>